<?xml version="1.0" encoding="UTF-8"?>
<svg width="156px" height="156px" viewBox="0 0 156 156" version="1.1" xmlns="http://www.w3.org/2000/svg" xmlns:xlink="http://www.w3.org/1999/xlink">
    <!-- Generator: Sketch 51.2 (57519) - http://www.bohemiancoding.com/sketch -->
    <title>Group 19</title>
    <desc>Created with Sketch.</desc>
    <defs>
        <polygon id="path-1" points="-3.08510638e-05 0 28.9999691 0 28.9999691 156 -3.08510638e-05 156"></polygon>
        <polygon id="path-3" points="0 3.046875e-05 40 3.046875e-05 40 156 0 156"></polygon>
    </defs>
    <g id="Page-1" stroke="none" stroke-width="1" fill="none" fill-rule="evenodd" opacity="0.0542410714">
        <g id="Keto_cycle9" transform="translate(-109.000000, -3330.000000)">
            <g id="Group-19" transform="translate(109.000000, 3330.000000)">
                <path d="M78.5,41.1267606 C99.1076655,41.1267606 115.873239,57.8923345 115.873239,78.5 C115.873239,99.1076655 99.1076655,115.873239 78.5,115.873239 C57.8923345,115.873239 41.1267606,99.1076655 41.1267606,78.5 C41.1267606,57.8923345 57.8923345,41.1267606 78.5,41.1267606 M78.5,122 C102.485961,122 122,102.485961 122,78.5 C122,54.5140387 102.485961,35 78.5,35 C54.5140387,35 35,54.5140387 35,78.5 C35,102.485961 54.5140387,122 78.5,122" id="Fill-1" fill="#000000"></path>
                <g id="Group-5" transform="translate(127.000000, 0.000000)">
                    <mask id="mask-2" fill="white">
                        <use xlink:href="#path-1"></use>
                    </mask>
                    <g id="Clip-4"></g>
                    <path d="M22.8297564,146.859375 C22.8297564,148.539422 21.4457777,149.90625 19.74465,149.90625 C18.0435223,149.90625 16.6595436,148.539422 16.6595436,146.859375 L16.6595436,100.699219 C16.6595436,99.8911875 16.3343734,99.1163672 15.755916,98.5447734 L9.07079894,91.9425 C7.20029894,90.0951797 6.17018191,87.6390937 6.17018191,85.0263984 L6.17018191,45.4925859 C6.17018191,31.4830547 12.3036819,18.3162891 22.8297564,9.23111719 L22.8297564,146.859375 Z M27.3620862,0.355875 C26.3541819,-0.172453125 25.1330968,-0.108773438 24.1875117,0.521929687 C9.04210745,10.6287188 -3.08510638e-05,27.4401563 -3.08510638e-05,45.4925859 L-3.08510638e-05,85.0263984 C-3.08510638e-05,89.2667344 1.67209681,93.2535703 4.70784149,96.2516953 L10.4893309,101.961539 L10.4893309,146.859375 C10.4893309,151.899516 14.641267,156 19.74465,156 C24.848033,156 28.9999691,151.899516 28.9999691,146.859375 L28.9999691,3.046875 C28.9999691,1.91983594 28.3699904,0.8848125 27.3620862,0.355875 Z" id="Fill-3" fill="#000000" mask="url(#mask-2)"></path>
                </g>
                <path d="M57.30478,77.9596226 C57.30478,69.1823572 62.7136508,61.2837608 71.0845072,57.837493 C72.6856061,57.1783392 73.4295701,55.3918134 72.746132,53.8473017 C72.0626938,52.3030941 70.209719,51.585869 68.6089353,52.2447188 C57.9119303,56.6490095 51,66.7427584 51,77.9596226 C51,79.638519 52.411325,81 54.15239,81 C55.893455,81 57.30478,79.638519 57.30478,77.9596226" id="Fill-6" fill="#000000"></path>
                <path d="M77.9354488,57 L77.9554114,57 L78.0643249,56.9997 C79.6856983,56.9997 81,55.6563672 81,53.99985 C81,52.3430328 79.6856983,51 78.0643249,51 L77.9160733,51.0003 C76.2947,51.0113994 74.9892053,52.3634318 75.0000673,54.019949 C75.0109293,55.6698665 76.323176,57 77.9354488,57" id="Fill-8" fill="#000000"></path>
                <path d="M55.4226607,31.5913092 C62.7662374,27.8926081 70.699271,26.0170833 79.0015518,26.0170833 C93.4173966,26.0170833 106.824351,31.7152612 116.752353,42.0625384 C117.350327,42.6859083 118.153911,43 118.959015,43 C119.710893,43 120.463986,42.7259219 121.052227,42.1735536 C122.270681,41.0297061 122.320867,39.1256001 121.164765,37.9203783 C115.790912,32.3196772 109.45653,27.9124645 102.337725,24.8223914 C94.9661662,21.6222057 87.1146467,20 79.0015518,20 C69.7308338,20 60.8689034,22.0957501 52.6621281,26.2294863 C51.1653694,26.9834269 50.569525,28.7948698 51.3317435,30.275674 C52.0942662,31.7558765 53.925598,32.3449489 55.4226607,31.5913092" id="Fill-10" fill="#000000"></path>
                <path d="M122.846137,110.654702 C121.529814,109.614333 119.619581,109.837963 118.579099,111.154226 C108.647285,123.717966 93.7782704,130.923378 77.7846246,130.923378 C67.7747356,130.923378 58.0573967,128.072084 49.6831144,122.677597 C48.27292,121.768792 46.3924583,122.17625 45.4841255,123.587009 C44.5757926,124.997767 44.9828715,126.878272 46.3933697,127.786469 C55.7507172,133.814171 66.6057507,137 77.7846246,137 C95.6474918,137 112.253579,128.953238 123.344961,114.922528 C124.385443,113.606569 124.162461,111.69568 122.846137,110.654702" id="Fill-12" fill="#000000"></path>
                <path d="M41.2461948,115.102322 C41.2305837,115.083534 41.2149726,115.063866 41.1987725,115.045078 C40.1510642,113.804513 38.2930534,113.645993 37.0485868,114.689876 C35.8041203,115.734346 35.6444751,117.5858 36.6924779,118.826659 L36.7210491,118.860124 L36.7225219,118.85895 C36.753744,118.898287 36.7861443,118.937623 36.8197228,118.976372 C37.4023394,119.652724 38.2264855,120 39.0559336,120 C39.7351619,120 40.4176304,119.766917 40.9731485,119.291651 C42.2073059,118.235438 42.3489836,116.382223 41.2894934,115.151932 L41.2461948,115.102322 Z" id="Fill-14" fill="#000000"></path>
                <g id="Group-18">
                    <mask id="mask-4" fill="white">
                        <use xlink:href="#path-3"></use>
                    </mask>
                    <g id="Clip-17"></g>
                    <path d="M25.1414925,52.2904992 C23.8644776,52.667093 22.9850746,53.8605539 22.9850746,55.2173273 L22.9850746,146.859405 C22.9850746,148.539452 21.6459701,149.90628 20,149.90628 C18.3540299,149.90628 17.0149254,148.539452 17.0149254,146.859405 L17.0149254,55.2173273 C17.0149254,53.8605539 16.1358209,52.667093 14.8585075,52.2904992 C10.2068657,50.9184914 6.80447761,46.8429914 6.10507463,42.0469055 L33.8946269,42.0469055 C33.1955224,46.8429914 29.7931343,50.9184914 25.1414925,52.2904992 M40,40.2187805 L40,3.04690547 C40,1.36411641 38.6635821,3.046875e-05 37.0149254,3.046875e-05 C35.3662687,3.046875e-05 34.0298507,1.36411641 34.0298507,3.04690547 L34.0298507,35.9531555 L28.6543284,35.9531555 C28.6546269,35.936093 28.6567164,35.9196398 28.6567164,35.9022727 L28.6567164,3.04690547 C28.6567164,1.36411641 27.3202985,3.046875e-05 25.6716418,3.046875e-05 C24.0229851,3.046875e-05 22.6865672,1.36411641 22.6865672,3.04690547 L22.6865672,35.9022727 C22.6865672,35.9193352 22.6889552,35.936093 22.6889552,35.9531555 L17.3110448,35.9531555 C17.3113433,35.936093 17.3134328,35.9196398 17.3134328,35.9022727 L17.3134328,3.04690547 C17.3134328,1.36411641 15.9770149,3.046875e-05 14.3283582,3.046875e-05 C12.6797015,3.046875e-05 11.3432836,1.36411641 11.3432836,3.04690547 L11.3432836,35.9022727 C11.3432836,35.9193352 11.3456716,35.936093 11.3456716,35.9531555 L5.97014925,35.9531555 L5.97014925,3.04690547 C5.97014925,1.36411641 4.63373134,3.046875e-05 2.98507463,3.046875e-05 C1.33641791,3.046875e-05 0,1.36411641 0,3.04690547 L0,40.2187805 C0,47.6927648 4.44298507,54.4382414 11.0447761,57.3541008 L11.0447761,146.859405 C11.0447761,151.899546 15.0620896,156.00003 20,156.00003 C24.9379104,156.00003 28.9552239,151.899546 28.9552239,146.859405 L28.9552239,57.3541008 C35.5570149,54.4382414 40,47.6927648 40,40.2187805" id="Fill-16" fill="#000000" mask="url(#mask-4)"></path>
                </g>
            </g>
        </g>
    </g>
</svg>