<?xml version="1.0" encoding="UTF-8"?>
<svg width="97px" height="191px" viewBox="0 0 97 191" version="1.1" xmlns="http://www.w3.org/2000/svg" xmlns:xlink="http://www.w3.org/1999/xlink">
    <!-- Generator: Sketch 51.2 (57519) - http://www.bohemiancoding.com/sketch -->
    <title>Group 17</title>
    <desc>Created with Sketch.</desc>
    <defs>
        <rect id="path-1" x="0" y="0" width="110" height="191"></rect>
    </defs>
    <g id="Page-1" stroke="none" stroke-width="1" fill="none" fill-rule="evenodd">
        <g id="Keto_cycle9" transform="translate(-223.000000, -2690.000000)">
            <g id="Group-17" transform="translate(218.000000, 2690.000000)">
                <g id="Group-3">
                    <mask id="mask-2" fill="white">
                        <use xlink:href="#path-1"></use>
                    </mask>
                    <g id="Mask" fill-rule="nonzero"></g>
                    <g mask="url(#mask-2)" fill="#56468F" id="Fill-1" opacity="0.0989955357">
                        <g transform="translate(5.000000, -8.000000)">
                            <path d="M49.7518406,130.910323 C49.4121324,134.898273 52.0949566,155.919359 53.5321839,164.16343 C54.1767585,168.082176 56.0146674,174.431755 55.3700927,177.848763 C54.4119412,182.546067 54.1419167,188.627475 54.6471238,192.174243 C54.9955426,194.336906 56.0146674,204.267855 54.5513087,207.91843 C53.7673665,209.812923 52.3736916,219.57951 52.3736916,219.57951 C48.697874,228.801105 50.7709654,228.33397 50.7709654,228.33397 C51.8946158,229.752677 53.8370503,228.46373 53.8370503,228.46373 C55.3352508,229.415302 56.3543756,228.230162 56.3543756,228.230162 C57.6435249,229.276891 59.1068836,228.091752 59.1068836,228.091752 C60.7096098,228.939516 62.2078103,227.417001 62.2078103,227.417001 C63.1224095,227.858184 63.3314608,227.287241 63.3314608,227.287241 C66.0839687,227.114228 61.7984183,218.359768 61.7984183,218.359768 C60.7792935,210.487674 62.8175431,206.093143 62.8175431,206.093143 C69.5246037,186.326402 69.864312,181.092757 67.2076192,173.653196 C66.423677,171.490533 66.2581781,170.65142 66.5978864,169.734451 C67.4079599,167.571788 66.7982271,158.886533 67.7825101,155.443573 C69.6901026,148.817173 71.5628533,131.991654 72.5122944,124.154163 C73.844996,113.574415 67.8870357,99.3786947 67.8870357,99.3786947 C66.5978864,93.6000589 68.4967685,73.0547595 68.4967685,73.0547595 C71.1534613,77.1465181 71.0489357,84.4130661 71.0489357,84.4130661 C70.6395437,92.0169895 77.2420787,103.669418 77.2420787,103.669418 C80.4388206,108.47053 81.6321547,113.038075 81.6321547,113.37545 C81.6321547,114.759555 81.3272883,118.107357 81.3272883,118.107357 L81.4666558,121.039928 C81.5014977,121.783884 81.9370211,124.318526 81.8760478,125.57287 C81.3621302,133.176794 82.5903062,131.758087 82.5903062,131.758087 C83.609431,131.758087 84.7330814,125.642075 84.7330814,125.642075 C84.7330814,127.190542 84.3585313,131.957052 85.2034467,133.713134 C86.2225715,135.841195 86.9716718,133.341156 87.0065137,132.874021 C87.2852487,123.167989 87.8601396,125.70263 87.8601396,125.70263 C88.4350305,133.583374 89.1231575,135.339457 90.3774649,134.72526 C91.326906,134.292728 90.4819905,125.3047 90.4819905,125.3047 C92.1108481,130.642152 93.3390241,131.481266 93.3390241,131.481266 C96.0566903,133.341156 94.3581489,128.176717 93.9835988,127.129988 C92.0063225,121.688727 91.9453492,119.794234 91.9453492,119.794234 C94.4278327,124.690504 96.3005834,124.526141 96.3005834,124.526141 C98.748225,123.747583 94.19265,116.783807 91.5359572,113.470607 C90.1771241,111.78373 88.4001886,109.482657 87.8949814,108.133155 C87.0761974,105.866684 86.4316228,98.5395814 86.4316228,98.5395814 C86.1964401,89.8543264 84.018823,86.0999433 84.018823,86.0999433 C80.3430054,80.2174997 79.6635889,69.309027 79.6635889,69.309027 L79.4893795,50.8225828 C78.2002302,38.2531849 68.8364767,38.1493771 68.8364767,38.1493771 C59.41175,36.7306701 58.0877588,33.720243 58.0877588,33.720243 C56.0843511,30.8482264 57.2341329,25.3810141 57.2341329,25.3810141 C58.9065428,24.0228617 59.5162756,20.4760942 59.5162756,20.4760942 C62.2687836,18.3826363 62.1381266,15.3116547 60.8751087,15.3376067 C59.8559839,15.3722093 60.0911665,14.533096 60.0911665,14.533096 C61.7984183,0.709353496 49.4469742,0 49.4469742,0 L47.5742235,0 C47.5742235,0 35.1879376,0.709353496 36.9213208,14.533096 C36.9213208,14.533096 37.1652139,15.3722093 36.1112472,15.3376067 C34.8482293,15.3116547 34.7437037,18.3826363 37.4700803,20.4760942 C37.4700803,20.4760942 38.1146549,24.0228617 39.7783544,25.3810141 C39.7783544,25.3810141 40.9368467,30.8482264 38.933439,33.720243 C38.933439,33.720243 37.6007373,36.7306701 28.1760106,38.1493771 C28.1760106,38.1493771 18.7861257,38.2531849 17.5318183,50.8225828 L17.3576089,69.309027 C17.3576089,69.309027 16.6781924,80.2174997 12.9675329,86.0999433 C12.9675329,86.0999433 10.8247577,89.8543264 10.589575,98.5395814 C10.589575,98.5395814 9.94500036,105.866684 9.12621633,108.133155 C8.6122987,109.482657 6.84407363,111.749128 5.48524057,113.470607 C2.79370586,116.783807 -1.72702721,123.71298 0.685772522,124.526141 C0.685772522,124.526141 2.59336509,124.690504 5.07584856,119.794234 C5.07584856,119.794234 5.00616481,121.645474 3.03759897,127.129988 C2.62820696,128.133463 0.95579704,133.341156 3.64733175,131.481266 C3.64733175,131.481266 4.90163919,130.642152 6.53920724,125.3047 C6.53920724,125.3047 5.65073947,134.292728 6.64373286,134.72526 C7.8980403,135.339457 8.57745683,133.583374 9.16105821,125.70263 C9.16105821,125.70263 9.73594912,123.167989 10.0059736,132.874021 C10.0408155,133.341156 10.7550739,135.841195 11.8090406,133.713134 C12.6626665,131.957052 12.2881163,127.225145 12.2881163,125.642075 C12.2881163,125.642075 13.4117668,131.758087 14.4308915,131.758087 C14.4308915,131.758087 15.6590676,133.176794 15.1799918,125.57287 C15.0754662,124.318526 15.5197001,121.783884 15.5893838,121.039928 L15.6939095,118.107357 C15.6939095,118.107357 15.3890431,114.759555 15.3890431,113.37545 C15.3890431,113.038075 16.6085086,108.47053 19.7791191,103.669418 C19.7791191,103.669418 26.3729436,92.0169895 25.9635516,84.4130661 C25.9635516,84.4130661 25.8677365,77.1465181 28.5157188,73.0547595 C28.5157188,73.0547595 30.4233114,93.6000589 29.1341621,99.3786947 C29.1341621,99.3786947 23.1762017,113.574415 24.5001929,124.154163 C25.4583445,132.026257 27.3310951,148.817173 29.2299772,155.443573 C30.2229706,158.886533 29.6393693,167.537185 30.4233114,169.734451 C30.7630197,170.65142 30.5975208,171.525136 29.8135786,173.653196 C27.1568858,181.092757 27.496594,186.326402 34.2036547,206.093143 C34.2036547,206.093143 36.2767461,210.487674 35.2227795,218.359768 C35.2227795,218.359768 30.937229,227.114228 33.689737,227.287241 C33.689737,227.287241 33.8987883,227.858184 34.8133874,227.417001 C34.8133874,227.417001 36.311588,228.939516 37.9143142,228.091752 C37.9143142,228.091752 39.4038042,229.276891 40.6668222,228.230162 C40.6668222,228.230162 41.685947,229.415302 43.1493056,228.46373 C43.1493056,228.46373 45.1265819,229.752677 46.2763638,228.33397 C46.2763638,228.33397 48.3233238,228.801105 44.6823481,219.57951 C44.6823481,219.57951 43.2538313,209.847526 42.504731,207.91843 C41.0065304,204.267855 42.0604971,194.302303 42.3653635,192.174243 C42.8792811,188.627475 42.6092566,182.546067 41.685947,177.848763 C41.0065304,174.466357 42.8444392,168.082176 43.5238558,164.16343 C44.9175307,155.953961 47.6439073,134.898273 47.304199,130.910323 L48.4278494,131.316903 C49.237923,131.316903 49.7518406,130.910323 49.7518406,130.910323"></path>
                        </g>
                    </g>
                </g>
                <g id="Group-11" transform="translate(34.000000, 75.000000)" fill="#FF3464" fill-rule="nonzero" opacity="0.15">
                    <circle id="Oval-4" cx="20" cy="20" r="20"></circle>
                    <circle id="Oval-4" cx="20" cy="20" r="15"></circle>
                </g>
                <g id="Group-11-Copy" transform="translate(41.000000, 9.000000)" fill="#FF3464" fill-rule="nonzero" opacity="0.15">
                    <circle id="Oval-4" cx="12.5" cy="12.5" r="12.5"></circle>
                    <circle id="Oval-4" cx="12.5" cy="12.5" r="9.5"></circle>
                </g>
                <g id="Group-11-Copy-2" transform="translate(22.000000, 56.000000)" fill="#FF3464" fill-rule="nonzero" opacity="0.15">
                    <circle id="Oval-4" cx="12.5" cy="12.5" r="12.5"></circle>
                    <circle id="Oval-4" cx="12.5" cy="12.5" r="9.5"></circle>
                </g>
                <g id="Group-11-Copy-4" transform="translate(29.000000, 123.000000)" fill="#FF3464" fill-rule="nonzero" opacity="0.15">
                    <circle id="Oval-4" cx="12.5" cy="12.5" r="12.5"></circle>
                    <circle id="Oval-4" cx="12.5" cy="12.5" r="9.5"></circle>
                </g>
                <g id="Group-11-Copy-3" transform="translate(59.000000, 56.000000)" fill="#FF3464" fill-rule="nonzero" opacity="0.15">
                    <circle id="Oval-4" cx="12.5" cy="12.5" r="12.5"></circle>
                    <circle id="Oval-4" cx="12.5" cy="12.5" r="9.5"></circle>
                </g>
                <g id="Group-11-Copy-5" transform="translate(54.000000, 123.000000)" fill="#FF3464" fill-rule="nonzero" opacity="0.15">
                    <circle id="Oval-4" cx="12.5" cy="12.5" r="12.5"></circle>
                    <circle id="Oval-4" cx="12.5" cy="12.5" r="9.5"></circle>
                </g>
            </g>
        </g>
    </g>
</svg>