<?xml version="1.0" encoding="UTF-8"?>
<svg width="345px" height="180px" viewBox="0 0 345 180" version="1.1" xmlns="http://www.w3.org/2000/svg" xmlns:xlink="http://www.w3.org/1999/xlink">
    <!-- Generator: Sketch 51.2 (57519) - http://www.bohemiancoding.com/sketch -->
    <title>Group 20</title>
    <desc>Created with Sketch.</desc>
    <defs>
        <rect id="path-1" x="0" y="0" width="325" height="214"></rect>
        <linearGradient x1="2.27126441%" y1="97.7203376%" x2="2.27126441%" y2="14.310247%" id="linearGradient-3">
            <stop stop-color="#FFFFFF" offset="0%"></stop>
            <stop stop-color="#FF3464" offset="100%"></stop>
        </linearGradient>
        <path d="M0,17 C15.1098301,93.4486716 123.443163,136.448672 325,146" id="path-4"></path>
        <filter x="-5.8%" y="-11.6%" width="111.7%" height="129.5%" filterUnits="objectBoundingBox" id="filter-5">
            <feMorphology radius="0.5" operator="dilate" in="SourceAlpha" result="shadowSpreadOuter1"></feMorphology>
            <feOffset dx="0" dy="4" in="shadowSpreadOuter1" result="shadowOffsetOuter1"></feOffset>
            <feMorphology radius="0.5" operator="erode" in="SourceAlpha" result="shadowInner"></feMorphology>
            <feOffset dx="0" dy="4" in="shadowInner" result="shadowInner"></feOffset>
            <feComposite in="shadowOffsetOuter1" in2="shadowInner" operator="out" result="shadowOffsetOuter1"></feComposite>
            <feGaussianBlur stdDeviation="5.5" in="shadowOffsetOuter1" result="shadowBlurOuter1"></feGaussianBlur>
            <feColorMatrix values="0 0 0 0 1   0 0 0 0 0.203921569   0 0 0 0 0.392156863  0 0 0 1 0" type="matrix" in="shadowBlurOuter1"></feColorMatrix>
        </filter>
    </defs>
    <g id="Page-1" stroke="none" stroke-width="1" fill="none" fill-rule="evenodd">
        <g id="Keto_cycle9" transform="translate(-14.000000, -3041.000000)">
            <g id="Group-20" transform="translate(25.000000, 3029.000000)">
                <g id="Path-9">
                    <mask id="mask-2" fill="white">
                        <use xlink:href="#path-1"></use>
                    </mask>
                    <g id="Mask" fill-rule="nonzero"></g>
                    <path d="M0,17 C15.1098301,93.2357274 123.443163,136.115953 325,145.640677 C526.556837,155.1654 526.556837,170.458964 325,191.521369 L0,191.521369 L0,17 Z" fill="url(#linearGradient-3)" fill-rule="nonzero" opacity="0.131361607" mask="url(#mask-2)"></path>
                </g>
                <g id="Path-9" fill-rule="nonzero">
                    <use fill="black" fill-opacity="1" filter="url(#filter-5)" xlink:href="#path-4"></use>
                    <use stroke="#FF3464" stroke-width="3" xlink:href="#path-4"></use>
                </g>
                <path d="M147.176072,47.583 L147.176072,51.312 L138.035072,69 L132.788072,69 L142.589072,51.345 L132.128072,51.345 L132.128072,47.583 L147.176072,47.583 Z M155.811357,55.965 C156.999363,55.766999 158.132352,55.668 159.210357,55.668 C161.432369,55.668 163.203351,56.2014947 164.523357,57.2685 C165.843364,58.3355053 166.503357,59.86999 166.503357,61.872 C166.503357,64.0500109 165.766365,65.842993 164.292357,67.251 C162.73035,68.7250074 160.761369,69.462 158.385357,69.462 C156.031346,69.462 154.150364,68.8680059 152.742357,67.68 C151.26835,66.4479938 150.509358,64.7540108 150.465357,62.598 L154.458357,62.598 C154.458357,63.7200056 154.832354,64.5449974 155.580357,65.073 C156.328361,65.6010026 157.285352,65.865 158.451357,65.865 C159.617363,65.865 160.579854,65.4855038 161.338857,64.7265 C162.097861,63.9674962 162.477357,63.0160057 162.477357,61.872 C162.477357,59.6939891 161.003372,58.605 158.055357,58.605 L151.521357,58.605 L152.511357,47.583 L165.348357,47.583 L165.348357,51.147 L156.273357,51.147 L155.811357,55.965 Z M175.138643,47.154 C175.732646,47.154 176.30464,47.258499 176.854643,47.4675 C177.404645,47.676501 177.888641,47.9899979 178.306643,48.408 C179.208647,49.2660043 179.659643,50.5089919 179.659643,52.137 C179.659643,53.743008 179.208647,54.9969955 178.306643,55.899 C177.470638,56.7350042 176.403649,57.153 175.105643,57.153 C173.851636,57.153 172.806647,56.7350042 171.970643,55.899 C171.068638,54.9969955 170.617643,53.743008 170.617643,52.137 C170.617643,50.5089919 171.068638,49.2660043 171.970643,48.408 C172.828647,47.5719958 173.884636,47.154 175.138643,47.154 Z M176.722643,52.137 C176.722643,50.4649916 176.183648,49.629 175.105643,49.629 C174.049637,49.629 173.521643,50.4649916 173.521643,52.137 C173.521643,53.8310085 174.049637,54.678 175.105643,54.678 C176.183648,54.678 176.722643,53.8310085 176.722643,52.137 Z M186.622643,47.583 L190.549643,47.583 L176.062643,69 L172.102643,69 L186.622643,47.583 Z M187.513643,59.43 C188.767649,59.43 189.823638,59.8479958 190.681643,60.684 C191.583647,61.5420043 192.034643,62.7849919 192.034643,64.413 C192.034643,66.0410081 191.583647,67.3059955 190.681643,68.208 C189.845638,69.0440042 188.789649,69.462 187.513643,69.462 C186.237636,69.462 185.181647,69.0440042 184.345643,68.208 C183.443638,67.3059955 182.992643,66.0410081 182.992643,64.413 C182.992643,62.7849919 183.443638,61.5420043 184.345643,60.684 C185.203647,59.8479958 186.259636,59.43 187.513643,59.43 Z M187.513643,61.905 C186.457637,61.905 185.929643,62.7464916 185.929643,64.4295 C185.929643,66.1125084 186.457637,66.954 187.513643,66.954 C187.975645,66.954 188.360641,66.7615019 188.668643,66.3765 C188.976644,65.9914981 189.130643,65.3425046 189.130643,64.4295 C189.130643,63.5164954 188.976644,62.8675019 188.668643,62.4825 C188.360641,62.0974981 187.975645,61.905 187.513643,61.905 Z M130.918502,86.37 C131.417171,85.1799941 132.165163,84.585 133.162502,84.585 C133.355169,84.585 133.598834,84.6246663 133.893502,84.704 L133.859502,86.71 C133.542167,86.6419997 133.230503,86.608 132.924502,86.608 C131.587162,86.608 130.918502,87.5316574 130.918502,89.379 L130.918502,93 L128.912502,93 L128.912502,84.721 L130.918502,84.721 L130.918502,86.37 Z M142.561787,85.724 C142.845122,86.0866685 143.05762,86.5059976 143.199287,86.982 C143.340954,87.4580024 143.411787,87.8943314 143.411787,88.291 C143.411787,88.6876687 143.389121,89.0446651 143.343787,89.362 L138.005787,89.362 C138.028454,90.03067 138.192785,90.5746646 138.498787,90.994 C138.804789,91.4133354 139.269451,91.623 139.892787,91.623 C140.720124,91.623 141.21312,91.260337 141.371787,90.535 L143.394787,90.535 C143.258786,91.3623375 142.879123,92.0139976 142.255787,92.49 C141.609784,92.9886692 140.822125,93.238 139.892787,93.238 C138.804782,93.238 137.892457,92.8413373 137.155787,92.048 C136.39645,91.2206625 136.016787,90.1610065 136.016787,88.869 C136.016787,87.5429934 136.39645,86.4776707 137.155787,85.673 C137.881124,84.9023295 138.793448,84.517 139.892787,84.517 C141.037459,84.517 141.927117,84.9193293 142.561787,85.724 Z M139.909787,86.115 C139.343118,86.115 138.901122,86.2991648 138.583787,86.6675 C138.266452,87.0358352 138.079454,87.5089971 138.022787,88.087 L141.541787,88.087 C141.541787,87.1916622 141.258457,86.5910015 140.691787,86.285 C140.476453,86.1716661 140.215789,86.115 139.909787,86.115 Z M152.012072,91.725 C151.50207,92.7336717 150.720077,93.238 149.666072,93.238 C148.612067,93.238 147.728076,92.8356707 147.014072,92.031 C146.277402,91.1923291 145.909072,90.1270065 145.909072,88.835 C145.909072,87.5429935 146.260402,86.4946707 146.963072,85.69 C147.654409,84.9079961 148.515734,84.517 149.547072,84.517 C150.578411,84.517 151.354736,84.9306625 151.876072,85.758 L151.876072,81.338 L153.899072,81.338 L153.899072,93 L152.250072,93 L152.012072,91.725 Z M149.921072,86.319 C149.354403,86.319 148.881241,86.5484977 148.501572,87.0075 C148.121904,87.4665023 147.932072,88.0813295 147.932072,88.852 C147.932072,89.6226705 148.124737,90.2431643 148.510072,90.7135 C148.895407,91.1838357 149.382736,91.419 149.972072,91.419 C150.459408,91.419 150.895737,91.2263353 151.281072,90.841 C151.677741,90.4443313 151.876072,89.9456697 151.876072,89.345 L151.876072,88.274 C151.853405,87.6846637 151.655074,87.2030019 151.281072,86.829 C150.941071,86.4889983 150.487742,86.319 149.921072,86.319 Z M163.366357,91.504 C162.845021,92.6033388 162.006363,93.153 160.850357,93.153 C159.38835,93.153 158.425026,92.5806724 157.960357,91.436 C157.790357,91.0393313 157.705357,90.5576695 157.705357,89.991 L157.705357,84.721 L159.711357,84.721 L159.711357,89.787 C159.711357,90.3310027 159.841689,90.7361653 160.102357,91.0025 C160.363025,91.2688347 160.683189,91.402 161.062857,91.402 C161.442526,91.402 161.762689,91.3481672 162.023357,91.2405 C162.284025,91.1328328 162.51069,90.9713344 162.703357,90.756 C163.122693,90.2686642 163.343691,89.6170041 163.366357,88.801 L163.366357,84.721 L165.372357,84.721 L165.372357,93 L163.366357,93 L163.366357,91.504 Z M172.493643,84.517 C173.014979,84.517 173.482474,84.6048325 173.896143,84.7805 C174.309811,84.9561675 174.658308,85.1856652 174.941643,85.469 C175.508312,86.0130027 175.842642,86.6986625 175.944643,87.526 L173.921643,87.577 C173.830975,87.2143315 173.66381,86.9140012 173.420143,86.676 C173.176475,86.4379988 172.895978,86.319 172.578643,86.319 C172.261308,86.319 171.98931,86.3671662 171.762643,86.4635 C171.535975,86.5598338 171.337643,86.709999 171.167643,86.914 C170.782307,87.3900024 170.589643,88.0473291 170.589643,88.886 C170.589643,89.7246709 170.770974,90.3564979 171.133643,90.7815 C171.496311,91.2065021 171.935473,91.419 172.451143,91.419 C172.966812,91.419 173.340808,91.2971679 173.573143,91.0535 C173.805477,90.8098321 173.921643,90.4783354 173.921643,90.059 L175.944643,90.059 C175.944643,90.9656712 175.644312,91.7193303 175.043643,92.32 C174.43164,92.9320031 173.575981,93.238 172.476643,93.238 C171.388637,93.238 170.476313,92.8413373 169.739643,92.048 C168.957639,91.1979957 168.566643,90.1383397 168.566643,88.869 C168.566643,87.53166 168.957639,86.4606707 169.739643,85.656 C170.476313,84.8966629 171.394304,84.517 172.493643,84.517 Z M184.935928,85.724 C185.219263,86.0866685 185.43176,86.5059976 185.573428,86.982 C185.715095,87.4580024 185.785928,87.8943314 185.785928,88.291 C185.785928,88.6876687 185.763261,89.0446651 185.717928,89.362 L180.379928,89.362 C180.402595,90.03067 180.566926,90.5746646 180.872928,90.994 C181.178929,91.4133354 181.643591,91.623 182.266928,91.623 C183.094265,91.623 183.58726,91.260337 183.745928,90.535 L185.768928,90.535 C185.632927,91.3623375 185.253264,92.0139976 184.629928,92.49 C183.983925,92.9886692 183.196266,93.238 182.266928,93.238 C181.178922,93.238 180.266598,92.8413373 179.529928,92.048 C178.770591,91.2206625 178.390928,90.1610065 178.390928,88.869 C178.390928,87.5429934 178.770591,86.4776707 179.529928,85.673 C180.255265,84.9023295 181.167589,84.517 182.266928,84.517 C183.4116,84.517 184.301258,84.9193293 184.935928,85.724 Z M182.283928,86.115 C181.717258,86.115 181.275263,86.2991648 180.957928,86.6675 C180.640593,87.0358352 180.453595,87.5089971 180.396928,88.087 L183.915928,88.087 C183.915928,87.1916622 183.632597,86.5910015 183.065928,86.285 C182.850593,86.1716661 182.589929,86.115 182.283928,86.115 Z M194.386213,91.725 C193.87621,92.7336717 193.094218,93.238 192.040213,93.238 C190.986208,93.238 190.102217,92.8356707 189.388213,92.031 C188.651543,91.1923291 188.283213,90.1270065 188.283213,88.835 C188.283213,87.5429935 188.634543,86.4946707 189.337213,85.69 C190.02855,84.9079961 190.889875,84.517 191.921213,84.517 C192.952551,84.517 193.728877,84.9306625 194.250213,85.758 L194.250213,81.338 L196.273213,81.338 L196.273213,93 L194.624213,93 L194.386213,91.725 Z M192.295213,86.319 C191.728544,86.319 191.255382,86.5484977 190.875713,87.0075 C190.496044,87.4665023 190.306213,88.0813295 190.306213,88.852 C190.306213,89.6226705 190.498878,90.2431643 190.884213,90.7135 C191.269548,91.1838357 191.756877,91.419 192.346213,91.419 C192.833549,91.419 193.269878,91.2263353 193.655213,90.841 C194.051882,90.4443313 194.250213,89.9456697 194.250213,89.345 L194.250213,88.274 C194.227546,87.6846637 194.029215,87.2030019 193.655213,86.829 C193.315211,86.4889983 192.861883,86.319 192.295213,86.319 Z" id="75%-reduced" fill="#FF3464"></path>
            </g>
        </g>
    </g>
</svg>