<?xml version="1.0" encoding="UTF-8"?>
<svg width="345px" height="130px" viewBox="0 0 345 130" version="1.1" xmlns="http://www.w3.org/2000/svg" xmlns:xlink="http://www.w3.org/1999/xlink">
    <!-- Generator: Sketch 51.2 (57519) - http://www.bohemiancoding.com/sketch -->
    <title>Group 14</title>
    <desc>Created with Sketch.</desc>
    <defs>
        <path d="M0,51.2595603 C30.9621177,51.8948986 68.073284,66.5446791 111.333499,95.2089017 C176.223821,138.205236 307.734363,64.2572058 324,0" id="path-1"></path>
        <filter x="-6.0%" y="-14.4%" width="112.0%" height="136.1%" filterUnits="objectBoundingBox" id="filter-2">
            <feMorphology radius="1" operator="dilate" in="SourceAlpha" result="shadowSpreadOuter1"></feMorphology>
            <feOffset dx="0" dy="4" in="shadowSpreadOuter1" result="shadowOffsetOuter1"></feOffset>
            <feMorphology radius="1" operator="erode" in="SourceAlpha" result="shadowInner"></feMorphology>
            <feOffset dx="0" dy="4" in="shadowInner" result="shadowInner"></feOffset>
            <feComposite in="shadowOffsetOuter1" in2="shadowInner" operator="out" result="shadowOffsetOuter1"></feComposite>
            <feGaussianBlur stdDeviation="5.5" in="shadowOffsetOuter1" result="shadowBlurOuter1"></feGaussianBlur>
            <feColorMatrix values="0 0 0 0 0.337254902   0 0 0 0 0.274509804   0 0 0 0 0.560784314  0 0 0 1 0" type="matrix" in="shadowBlurOuter1"></feColorMatrix>
        </filter>
        <circle id="path-3" cx="79" cy="74" r="11"></circle>
        <filter x="-79.5%" y="-61.4%" width="259.1%" height="259.1%" filterUnits="objectBoundingBox" id="filter-4">
            <feMorphology radius="1" operator="erode" in="SourceAlpha" result="shadowSpreadOuter1"></feMorphology>
            <feOffset dx="0" dy="4" in="shadowSpreadOuter1" result="shadowOffsetOuter1"></feOffset>
            <feGaussianBlur stdDeviation="5.5" in="shadowOffsetOuter1" result="shadowBlurOuter1"></feGaussianBlur>
            <feColorMatrix values="0 0 0 0 1   0 0 0 0 0.203921569   0 0 0 0 0.392156863  0 0 0 1 0" type="matrix" in="shadowBlurOuter1"></feColorMatrix>
        </filter>
    </defs>
    <g id="Page-1" stroke="none" stroke-width="1" fill="none" fill-rule="evenodd">
        <g id="Keto_cycle9" transform="translate(-15.000000, -2146.000000)">
            <g id="Group-14" transform="translate(25.000000, 2152.000000)">
                <g id="Path-8" fill-rule="nonzero">
                    <use fill="black" fill-opacity="1" filter="url(#filter-2)" xlink:href="#path-1"></use>
                    <use stroke="#56468F" stroke-width="4" xlink:href="#path-1"></use>
                </g>
                <g id="Oval-Copy" fill-rule="nonzero">
                    <use fill="black" fill-opacity="1" filter="url(#filter-4)" xlink:href="#path-3"></use>
                    <use fill="#FF3464" xlink:href="#path-3"></use>
                </g>
                <path d="M45.4542873,33.42 L51.6942873,43.52 L51.6942873,33.42 L53.2742873,33.42 L53.2742873,46 L51.5142873,46 L45.1742873,35.76 L45.1742873,46 L43.5742873,46 L43.5742873,33.42 L45.4542873,33.42 Z M61.4328582,36.2 C62.7661982,36.2 63.8428541,36.633329 64.6628582,37.5 C65.4828623,38.366671 65.8928582,39.6066586 65.8928582,41.22 C65.8928582,42.820008 65.4828623,44.053329 64.6628582,44.92 C63.8428541,45.786671 62.7661982,46.22 61.4328582,46.22 C60.0995182,46.22 59.0228623,45.786671 58.2028582,44.92 C57.3828541,44.053329 56.9728582,42.820008 56.9728582,41.22 C56.9728582,39.6066586 57.3828541,38.366671 58.2028582,37.5 C59.0228623,36.633329 60.0995182,36.2 61.4328582,36.2 Z M64.2928582,41.22 C64.2928582,40.0733276 64.0528606,39.1766699 63.5728582,38.53 C63.0928558,37.8833301 62.3895295,37.56 61.4628582,37.56 C60.5361869,37.56 59.826194,37.8833301 59.3328582,38.53 C58.8395224,39.1766699 58.5928582,40.0699943 58.5928582,41.21 C58.5928582,42.3500057 58.8261892,43.2433301 59.2928582,43.89 C59.7595272,44.5366699 60.4561869,44.86 61.3828582,44.86 C62.3095295,44.86 63.026189,44.5366699 63.5328582,43.89 C64.0395274,43.2433301 64.2928582,42.353339 64.2928582,41.22 Z M73.4914291,37.78 C71.9847549,37.78 71.2047627,38.9666548 71.1514291,41.34 L71.1514291,46 L69.5714291,46 L69.5714291,36.42 L71.1514291,36.42 L71.1514291,38.26 C71.6314315,36.92666 72.4780897,36.26 73.6914291,36.26 C74.0780977,36.26 74.4447607,36.3199994 74.7914291,36.44 L74.7114291,37.98 C74.3114271,37.846666 73.9047645,37.78 73.4914291,37.78 Z M79.41,38.28 C80.0366698,36.8933264 81.1099924,36.2 82.63,36.2 C83.4566708,36.2 84.1499972,36.4033313 84.71,36.81 C85.2700028,37.2166687 85.6766654,37.7799964 85.93,38.5 C86.530003,36.966659 87.6433252,36.2 89.27,36.2 C90.4166724,36.2 91.3033302,36.5733296 91.93,37.32 C92.5566698,38.0666704 92.87,39.0866602 92.87,40.38 L92.87,46 L91.31,46 L91.31,40.38 C91.31,39.4599954 91.0933355,38.766669 90.66,38.3 C90.2266645,37.833331 89.6033374,37.6 88.79,37.6 C87.9766626,37.6 87.3466689,37.93333 86.9,38.6 C86.4533311,39.26667 86.23,40.1866608 86.23,41.36 L86.23,46 L84.67,46 L84.67,40.38 C84.67,39.4599954 84.4533355,38.766669 84.02,38.3 C83.5866645,37.833331 82.970004,37.6 82.17,37.6 C81.369996,37.6 80.7233358,37.9266634 80.23,38.58 C79.7366642,39.2333366 79.4766668,40.1399942 79.45,41.3 L79.45,46 L77.87,46 L77.87,36.44 L79.23,36.44 L79.41,38.28 Z M103.188571,39.8 C103.188571,38.933329 103.008573,38.3133352 102.648571,37.94 C102.288569,37.5666648 101.765241,37.38 101.078571,37.38 C100.391901,37.38 99.838573,37.5166653 99.4185709,37.79 C98.9985688,38.0633347 98.7885709,38.4933304 98.7885709,39.08 L97.0485709,39.08 C97.0485709,37.613326 97.8352297,36.7066684 99.4085709,36.36 C99.8885733,36.2533328 100.408568,36.2 100.968571,36.2 C102.155243,36.2 103.081901,36.499997 103.748571,37.1 C104.415241,37.700003 104.748571,38.6133272 104.748571,39.84 L104.748571,46 L103.388571,46 L103.228571,44.4 C102.641901,45.6133394 101.581912,46.22 100.048571,46.22 C99.0218991,46.22 98.198574,45.9333362 97.5785709,45.36 C96.9585678,44.7866638 96.6485709,44.0733376 96.6485709,43.22 C96.6485709,42.3666624 96.9919008,41.7000024 97.6785709,41.22 C98.365241,40.7399976 99.2218991,40.5 100.248571,40.5 C101.275243,40.5 102.255233,40.6733316 103.188571,41.02 L103.188571,39.8 Z M103.188571,42.02 C102.2419,41.753332 101.415241,41.62 100.708571,41.62 C100.001901,41.62 99.4285731,41.7466654 98.9885709,42 C98.5485687,42.2533346 98.3285709,42.6533306 98.3285709,43.2 C98.3285709,44.400006 99.0085641,45 100.368571,45 C101.141908,45 101.805235,44.7233361 102.358571,44.17 C102.911907,43.6166639 103.188571,42.9000044 103.188571,42.02 Z M109.147142,32.38 L110.727142,32.38 L110.727142,46 L109.147142,46 L109.147142,32.38 Z" id="Normal" fill="#FF3464"></path>
            </g>
        </g>
    </g>
</svg>